<?xml version="1.0" encoding="UTF-8"?>
<svg width="80px" height="80px" viewBox="0 0 80 80" version="1.1" xmlns="http://www.w3.org/2000/svg" xmlns:xlink="http://www.w3.org/1999/xlink">
    <!-- Generator: Sketch 49.3 (51167) - http://www.bohemiancoding.com/sketch -->
    <title>_Icons/_App/80 - Transfers</title>
    <desc>Created with Sketch.</desc>
    <defs>
        <linearGradient x1="50%" y1="0%" x2="50%" y2="100%" id="linearGradient-1">
            <stop stop-color="#68B3E2" offset="0%"></stop>
            <stop stop-color="#5AA5D4" offset="100%"></stop>
        </linearGradient>
        <path d="M22,0 L58,0 C70.15,0 80,9.85 80,22 L80,58 C80,70.15 70.15,80 58,80 L22,80 C9.85,80 0,70.15 0,58 L0,22 C0,9.85 9.85,0 22,0" id="path-2"></path>
    </defs>
    <g id="_Icons/_App/80---Transfers" stroke="none" stroke-width="1" fill="none" fill-rule="evenodd">
        <g id="DP">
            <g id="Group">
                <mask id="mask-3" fill="white">
                    <use xlink:href="#path-2"></use>
                </mask>
                <g id="Fill-1">
                    <use fill="#FFC900" xlink:href="#path-2"></use>
                    <use fill="url(#linearGradient-1)" xlink:href="#path-2"></use>
                </g>
                <polygon id="Combined-Shape-Copy" fill="#E61A33" mask="url(#mask-3)" points="80 0 80 80 0 80 0 0"></polygon>
            </g>
            <path d="M22.1842016,60.4886736 L22.1842016,56.2683518 L58.0502306,56.2683518 L58.0502306,60.4888999 L22.1842016,60.4886736 Z M44.8640607,21.7034329 L40.0668754,26.3954027 L35.3704468,21.7034329 L40.0668754,17 L44.8640607,21.7034329 Z M45.5020112,50.6470379 L45.5020112,32.6974915 C48.6918359,33.207621 51.7912742,34.1757145 54.7043655,35.571799 L48.7573761,49.9756145 C48.5737626,50.375461 48.1785069,50.635878 47.7386464,50.6468117 C47.2922545,50.6626489 45.5020112,50.6470379 45.5020112,50.6470379 Z M41.2880991,28.0348583 L41.2880991,54.4080952 C41.2880991,54.4080952 48.2109816,54.3996334 50.0125374,54.4080799 C51.5162724,54.413359 52.0533152,53.0549766 52.0533152,53.0549766 L58.3739193,37.6200062 C58.9827841,38.0114121 59.5779984,38.4215966 60.1595622,38.8505594 L53.5912894,54.4080799 L58.1703695,54.4080799 C60.5251325,48.765348 62.8800463,43.1235966 65.2351109,37.4828255 C58.599772,31.6357641 50.1283589,28.2934835 41.2880991,28.0348583 Z M34.7322701,50.6470379 L34.7322701,32.6974915 C31.5424628,33.2076951 28.4430349,34.1757853 25.5299158,35.571799 L31.4774331,49.9756145 C31.6610347,50.375437 32.0562543,50.6358495 32.4960874,50.6468117 C32.9422531,50.6626489 34.7322701,50.6470379 34.7322701,50.6470379 Z M38.9467101,28.0348583 L38.9467101,54.4080952 C38.9467101,54.4080952 32.0234505,54.3996334 30.2222718,54.4080799 C28.7181597,54.413359 28.1814186,53.0549766 28.1814186,53.0549766 L21.8605882,37.6200062 C21.2522263,38.0114121 20.6571125,38.4215966 20.075247,38.8505594 L26.6434444,54.4080799 L22.0640627,54.4080799 C19.7092997,48.765348 17.3546121,43.1235966 15,37.4828255 C21.6352598,31.6358294 30.1065549,28.2935533 38.9467101,28.0348583 Z" id="Shape_2_copy" fill="#FFCC00"></path>
        </g>
    </g>
</svg>