<svg xmlns="http://www.w3.org/2000/svg" width="48" height="48" viewBox="0 0 48 48">
    <path fill="#E0E0E0" fill-rule="evenodd" d="M20.385 23.946c.07.088.03.698.03.812l.004 12.882h5.585c.033-3.39.001-6.87.001-10.278 0-.048-.011-3.3.004-3.367.01-.045.012-.039.023-.057.008 0 3.553.029 3.677-.001l.062-.018.49-4.702h-4.238c-.017-.694.003-1.408.004-2.105 0-.635-.015-1.42.363-1.77l3.85-.387-.007-4.716c-.728-.044-1.592-.004-2.335-.004-.774 0-1.557-.016-2.318.035-1.449.096-2.62.527-3.466 1.25-1.227 1.966-1.702.277-1.711 7.698l-2.806.002.005 4.723 2.783.003zM23.929 0c13.216 0 23.93 10.714 23.93 23.93 0 13.215-10.714 23.928-23.93 23.928S-.001 37.145-.001 23.93C0 10.714 10.714 0 23.93 0z"/>
</svg>
