<svg xmlns="http://www.w3.org/2000/svg" width="32" height="32" viewBox="0 0 32 32">
    <g id="protect" fill="none" fill-rule="evenodd">
        <path fill="#4CAF50" d="M3.538 11.413c-.085-1.813-.087-5.292-.053-6.416.04-1.356 1.168-1.21 1.498-.942 1.063.858 2.586 1.397 4.29 1.397 1.962 0 4.66-1.746 5.74-2.806.613-.602 1.691-.605 2.2-.046 1.036 1.14 3.793 2.852 5.782 2.852 1.722 0 3.26-.55 4.342-1.424.268-.217 1.418-.289 1.45.985.028 1.098.05 4.795-.05 6.351-.697 9.207-4.898 15.683-12.603 19.426C8.342 26.96 4.144 20.5 3.538 11.413z"/>
        <path stroke="#FFF" stroke-linecap="round" stroke-linejoin="round" stroke-width="2" d="M21.408 12.67l-6.412 6.416-2.884-2.982"/>
    </g>
</svg>
