<svg width="32" height="32" viewBox="0 0 32 32" fill="none" xmlns="http://www.w3.org/2000/svg">
<path fill-rule="evenodd" clip-rule="evenodd" d="M8.91927 3.92163C6.53058 5.32216 4.61083 7.39954 3.40276 9.89109C2.19469 12.3826 1.75256 15.1765 2.13228 17.9193C2.51199 20.6621 3.6965 23.2308 5.53601 25.3004C7.37553 27.3701 9.78745 28.8478 12.4668 29.5467C15.1461 30.2456 17.9725 30.1343 20.5886 29.2269C23.2047 28.3195 25.493 26.6568 27.1641 24.4489C28.8352 22.2411 29.8141 19.5873 29.977 16.8231C30.1399 14.0589 29.4795 11.3085 28.0793 8.9196C26.2008 5.71658 23.1271 3.39073 19.5341 2.45348C15.9411 1.51623 12.123 2.04432 8.91927 3.92163Z" fill="#D34C58"/>
<path fill-rule="evenodd" clip-rule="evenodd" d="M7.2799 9.57251L17.3004 9.65675C19.2483 9.65675 21.9088 9.90243 22.0316 11.7626L17.3004 12.8156C16.5107 13.0333 15.6742 13.0125 14.8962 12.7559L11.7374 11.9276C9.41737 11.3309 7.61333 10.4745 7.2799 9.57251ZM27.886 13.4965C26.812 11.8925 23.0074 12.4155 20.0591 13.1455L4.80548 16.6167C7.50452 18.877 12.9447 18.7507 18.1708 17.5047C18.4657 17.4345 18.571 17.6977 18.3849 17.8557L14.1065 21.4462C12.2849 22.98 11.1723 24.6893 11.2741 25.6369L20.4382 21.2461C22.5616 20.2283 24.7938 17.9469 23.246 15.9042C24.8809 15.2894 26.4363 14.481 27.879 13.4965H27.886Z" fill="white"/>
</svg>
