<svg xmlns="http://www.w3.org/2000/svg" width="48" height="48" viewBox="0 0 48 48">
    <g fill="#E0E0E0" fill-rule="evenodd">
        <path d="M37.303 33.701c-.049.995-.06 2.005-.258 2.972-.338 1.622-1.857 2.762-3.531 2.829-5.169.202-10.342.231-15.513.111a178.511 178.511 0 0 1-3.667-.12c-1.783-.077-3.386-1.64-3.508-3.417-.169-2.443-.253-4.888-.167-7.335.042-1.213.075-2.43.234-3.628.215-1.646 1.708-3 3.376-3.069 2.486-.104 4.972-.137 7.459-.19.756-.016 1.515-.003 2.27-.003v-.053c3.068.065 6.134.13 9.203.197 1.669.036 2.915.75 3.662 2.26.35.706.324 1.477.374 2.233a63.48 63.48 0 0 1 .066 7.213M17.558 8.338c.057.002.129.165.154.263.353 1.372.7 2.746 1.048 4.12.026.096.057.19.086.285l.104.004c.066-.263.138-.524.202-.786.291-1.207.587-2.414.869-3.625.046-.203.12-.29.347-.284.493.018.99.006 1.532.006-.037.16-.058.283-.095.404-.632 2.042-1.27 4.08-1.895 6.122a2.228 2.228 0 0 0-.095.633c-.01 1.388-.005 2.776-.005 4.163v.383h-1.802c-.007-.113-.014-.233-.014-.351-.002-1.316.002-2.633-.008-3.949a2.554 2.554 0 0 0-.103-.694c-.645-2.121-1.299-4.24-1.95-6.36-.03-.098-.051-.197-.088-.345.588 0 1.152-.008 1.713.011m5.896 2.955c1.016-.249 1.94-.129 2.649.726.278.335.436.73.44 1.161.008 1.677.026 3.354-.007 5.029-.023 1.142-.905 1.97-2.053 2.035-.868.048-1.624-.146-2.168-.875a2.048 2.048 0 0 1-.416-1.204c-.015-.844-.006-1.688-.006-2.53h-.001c0-.824-.02-1.646.003-2.467.03-.932.634-1.65 1.559-1.875m4.537.107h1.581v.43c0 1.955-.002 3.909 0 5.863 0 .101-.023.212.006.307.059.194.1.485.237.545.163.072.44-.006.624-.103.376-.196.56-.488.551-.966-.033-1.89-.014-3.784-.014-5.676v-.38h1.587v8.605h-1.574v-.95c-.162.158-.258.253-.357.347-.382.361-.812.638-1.341.726-.602.102-1.078-.187-1.226-.774a3.145 3.145 0 0 1-.09-.794c-.006-2.293-.003-4.587-.003-6.88 0-.081.01-.162.019-.3M24 0C10.746 0 0 10.745 0 24s10.746 24 24 24c13.253 0 24-10.745 24-24S37.253 0 24 0"/>
        <path d="M22.556 27.596c-.391.009-.783 0-1.172.003-.415 0-.461.046-.461.458-.002 1.84-.001 3.68-.001 5.52 0 .183.005.37-.001.555-.005.267-.453.704-.734.674-.383-.04-.219-.37-.246-.583-.026-.213-.005-.431-.005-.648 0-1.86-.007-3.72.005-5.58 0-.297-.105-.409-.395-.4-.381.012-.761.002-1.142.004-.425 0-.46.036-.46.452v6.875c0 .134 0 .268.01.402.1 1.275 1.015 1.8 2.166 1.232.264-.13.501-.313.786-.492.01.062.017.11.021.158.02.41.043.433.452.433.402.001.802-.004 1.203.003.247.006.35-.106.35-.351 0-2.785-.001-5.571.003-8.356 0-.269-.129-.364-.379-.36"/>
        <path d="M18.344 26.303c-.003-.483-.007-.967.004-1.449.003-.238-.104-.335-.331-.334h-5.273c-.244 0-.358.098-.353.35.009.442 0 .885.002 1.325.002.371.043.413.404.414h1.476v9.557c0 .47.025.493.48.493h1.233c.461 0 .487-.026.487-.487v-9.563c.548 0 1.05-.004 1.554.002.217.004.322-.084.317-.308M23.923 18.767c.492.055.805-.263.81-.845.01-.74.005-1.478.005-2.218 0-.76.003-1.52-.004-2.279-.002-.396-.152-.62-.457-.719-.534-.172-.944.136-.947.733-.008 1.489-.004 2.978-.001 4.466 0 .122.017.246.044.366.062.294.252.461.55.496M27.077 34.47c-.002.415-.104.538-.387.537-.347-.003-.567-.219-.567-.568v-2.314-2.373c0-.284.154-.457.433-.488.28-.032.42.126.488.368.024.088.033.183.033.275.001 1.52.005 3.042 0 4.563m1.879-5.757c-.376-1.193-1.59-1.58-2.61-.858-.06.043-.128.072-.226.127 0-1.057-.008-2.063.004-3.07.005-.295-.109-.407-.398-.398-.388.013-.78.002-1.17.003-.401.003-.441.043-.443.44v5.549c0 1.911 0 3.822.002 5.734 0 .376.042.42.427.42.4.003.8-.005 1.202.004.225.005.385-.055.39-.36.123.079.198.132.276.178.758.45 1.765.346 2.26-.246.352-.425.453-.939.455-1.473.003-1.663.01-3.327-.008-4.993a3.805 3.805 0 0 0-.161-1.057M32.001 30.777c.02-.384.018-.75.056-1.112.027-.248.203-.359.454-.364.246-.003.439.09.472.34.05.37.058.745.083 1.136H32zm.352 1.754c.782 0 1.564-.008 2.344.004.274.004.401-.09.395-.373-.02-.853.004-1.71-.053-2.56-.05-.766-.35-1.455-1.049-1.855-1.574-.9-3.928-.13-4.006 2.177-.048 1.497-.025 3.002.006 4.501.014.672.253 1.29.745 1.778.708.703 1.576.773 2.491.594.843-.162 1.438-.664 1.646-1.481.155-.609.157-1.257.21-1.888.016-.217-.155-.263-.338-.262-.453.002-.906.004-1.359-.001-.247-.003-.343.105-.342.356.004.347-.01.698-.048 1.045-.035.337-.337.505-.653.392-.248-.089-.296-.313-.301-.526-.017-.617-.006-1.234-.006-1.901h.318z"/>
    </g>
</svg>
