<svg xmlns="http://www.w3.org/2000/svg" width="176" height="88" viewBox="0 0 176 88">
    <g id="zk-logo-clr" fill-rule="evenodd">
        <path fill="#E0002E" d="M0 88h176V0H0z"/>
        <path fill="#FFF" d="M161.396 27.521a.4.4 0 0 0-.037-.189.3.3 0 0 0-.142-.159.6.6 0 0 0-.217-.062 1.426 1.426 0 0 0-.272-.022h-.482v.971h.401c.136 0 .248.002.338-.022a.74.74 0 0 0 .234-.104c.078-.057.114-.114.156-.177.007-.066.021-.136.021-.236zm1.118 2.054h-.71l-1.034-1.125h-.524v1.125h-.516v-2.88h.983a2.9 2.9 0 0 1 .492.03c.128.017.25.057.378.104.13.082.232.188.297.282.057.09.097.221.097.376a.84.84 0 0 1-.173.514c-.13.138-.3.245-.501.316l1.211 1.258zm.6-1.384a2.26 2.26 0 0 0-.69-1.668 2.213 2.213 0 0 0-1.661-.697c-.658 0-1.22.22-1.678.697a2.317 2.317 0 0 0-.694 1.668c0 .66.24 1.208.694 1.674.458.47 1.02.689 1.678.689.644 0 1.2-.22 1.66-.689a2.256 2.256 0 0 0 .692-1.674zm.37 0c0 .749-.272 1.395-.796 1.936a2.7 2.7 0 0 1-1.925.784c-.759 0-1.392-.27-1.93-.784-.542-.541-.814-1.187-.814-1.936 0-.75.272-1.379.813-1.93a2.65 2.65 0 0 1 1.93-.786c.741 0 1.393.26 1.926.786.524.551.796 1.18.796 1.93zM65.122 24.95c0 1.948-.84 3.574-2.53 4.578 1.637.865 3.017 2.285 3.017 4.24 0 3.057-1.79 5.316-4.632 6.328-1 .355-2.142.535-3.43.535-2.592 0-5.753-.972-7.688-2.74l1.428-2.255c.486-.692 1.286-.697 1.973-.3 1.504.867 2.621 1.471 4.43 1.471 1.996 0 3.387-.656 3.387-2.853 0-1.957-1.996-2.524-3.616-2.5h-3.028l-.015-3.737h2.642c1.204 0 2.092-.201 2.672-.606.583-.403.873-.993.873-1.764 0-1.742-1.792-2.138-3.203-2.138-1.507 0-2.496.473-3.793 1.135-.774.393-1.35.25-1.807-.48l-1.2-2.238c1.851-1.568 4.46-2.211 6.845-2.211 1.174 0 2.232.136 3.18.406 2.487.706 4.495 2.375 4.495 5.13M74.284 37.377c2.539 0 2.972-2.277 2.972-4.35 0-2.079-.432-4.338-2.972-4.338-2.578 0-3.03 2.208-3.03 4.337 0 2.125.454 4.35 3.03 4.35m0-11.97c4.59 0 7.545 3.022 7.545 7.59 0 4.573-2.925 7.663-7.545 7.663-4.633 0-7.602-3.059-7.602-7.663 0-4.6 2.999-7.59 7.602-7.59M96.604 25.635v14.796h-4.432V28.9h-3.131c-.2 2.87-.183 7.516-2.04 9.852-.731.92-1.637 1.561-2.809 1.77-.51.091-1.225.135-1.804.135-.28 0-.478-.005-.75-.113-.272-.112-.262-.31-.262-.5V37.39h-.03c.306 0 .605-.04.9-.12.916-.25 1.357-.897 1.749-1.713 1.16-2.423.839-7.262.98-9.922h11.63zM105.708 37.377c2.538 0 2.973-2.277 2.973-4.35 0-2.079-.434-4.338-2.973-4.338-2.577 0-3.03 2.208-3.03 4.337 0 2.126.454 4.35 3.03 4.35m0-11.97c4.59 0 7.546 3.022 7.546 7.59 0 4.573-2.925 7.663-7.546 7.663-4.63 0-7.604-3.06-7.604-7.663 0-4.596 3.004-7.59 7.604-7.59M113.16 25.635h13.854v3.166h-4.712v11.63h-4.43V28.8h-4.712zM147.21 31.608c.343.336.787.503 1.33.503h1.62v-3.709h-1.62c-.818 0-1.543.358-1.757 1.185-.179.691-.1 1.497.427 2.02zm7.15 8.822h-4.2v-5.694c-.474 0-1.028.026-1.408.351-.244.202-.415.517-.565.793l-1.395 3.095c-.684 1.182-1.431 1.455-2.73 1.455h-3.058l2.936-4.937c.507-.894 1.066-1.29 2.032-1.611-1.987-.431-3.734-1.616-3.734-3.824.001-1.225.508-2.28 1.45-3.06 1.296-1.069 3.09-1.362 4.723-1.362h5.949V40.43zM28.332 49.549h1.135c.515 0 .96-.098 1.33-.291.374-.195.715-.547 1.026-1.059 1.74-2.18 3.55-8.142 7.013-9.448 2.565-.967 4.79-.747 5.92-.728l-.002 4.188c.093 2.008-1.947 1.39-3.336 2.397-2.376 1.726-2.417 6.16-5.212 7.14.907.25 1.678.663 2.314 1.238.637.573 1.234 1.368 1.786 2.379l6.62 11.462h-6.274c-1.331 0-2.087-.846-2.7-1.931l-4.914-8.725c-.622-1.164-1.34-1.494-2.637-1.494h-2.069v12.15H21.47V38.023h6.863V49.55z"/>
        <path fill="#FFF" d="M55.815 62.391c3.69 0 4.32-3.305 4.32-6.321 0-3.018-.63-6.3-4.32-6.3-3.742 0-4.399 3.21-4.399 6.3 0 3.087.655 6.321 4.4 6.321m0-17.386c6.767 0 10.962 4.486 10.962 11.025 0 1.714-.266 3.257-.798 4.633-1.7 4.372-5.582 6.496-10.165 6.496-4.57 0-8.548-2.118-10.244-6.496-.531-1.376-.8-2.919-.8-4.633 0-6.583 4.257-11.025 11.044-11.025M78.945 49.834c-1.859 0-2.905.646-4.071 2.029v9.12c.908 1.006 2.018 1.45 3.366 1.45 3.493 0 4.11-3.784 4.11-6.528 0-2.324-.3-6.071-3.405-6.071zM68.44 73.647V45.334h3.986c.801 0 1.329.362 1.577 1.078l.477 1.576c1.801-1.974 4.006-3.067 6.708-3.067 3.875 0 6.208 2.886 7.211 6.352.804 2.764.818 6.367-.08 9.11-1.285 3.901-4.268 6.776-8.544 6.776-1.941 0-3.425-.491-4.902-1.761v8.249H68.44zM101.593 62.391c3.69 0 4.32-3.307 4.32-6.321 0-3.018-.632-6.3-4.32-6.3-3.742 0-4.399 3.21-4.399 6.3 0 3.087.655 6.321 4.4 6.321m0-17.386c6.667 0 10.962 4.39 10.962 11.025 0 6.644-4.251 11.13-10.963 11.13-6.73 0-11.043-4.443-11.043-11.13.001-6.679 4.358-11.025 11.043-11.025M133.738 45.334v21.494h-6.434V57.75h-6.646v9.078h-6.434V45.334h6.434v7.816h6.646v-7.816zM135.808 36.086c-.435.445-.867.767-1.294.966-.697.326-2.088.572-2.876-.008-.78-.576-.519-2.146.382-2.612.899-.462 2.784-.609 3.788-.652v2.306zm-1.478-10.69c-2.28-.002-4.085.332-5.74.585-.047.671-.414 3.803 2.162 3.222 2.097-.336 3.766-.687 4.523.13.33.355.504.743.53 1.51-1.687.038-3.083.208-4.187.511-1.748.476-3.195 1.19-4.026 2.89-.732 1.518-.422 4.255.893 5.429 1.407 1.243 4.02 1.306 5.681.543.788-.354 1.47-.872 2.127-1.425l.312.81c.294.75.71.877 1.477.877h2.018v-9.545c0-3.292-2.558-5.537-5.77-5.537z"/>
        <path fill="#FFC733" d="M21.475 35.963h23.28v-2.735h-23.28zM33.082 7.783l3.113 3.047-3.113 3.041-3.049-3.04zM49.418 21.055a24.618 24.618 0 0 0-15.543-6.121v17.089s4.494-.006 5.663 0c.975.004 1.324-.877 1.324-.877l4.103-10.002c.394.254.782.52 1.158.797L41.86 32.023h2.973l4.585-10.968m-11.356 8.53c-.29.011-1.452 0-1.452 0V17.954c2.106.337 4.112.972 5.973 1.863l-3.86 9.333c-.227.453-.66.435-.66.435M16.812 21.055a24.618 24.618 0 0 1 15.543-6.121v17.089s-4.494-.006-5.663 0c-.976.004-1.325-.877-1.325-.877l-4.102-10.002c-.395.254-.782.52-1.158.797l4.263 10.082h-2.973l-4.585-10.968m11.357 8.53c.288.011 1.45 0 1.45 0V17.954a21.822 21.822 0 0 0-5.972 1.863l3.86 9.333c.226.453.662.435.662.435"/>
        <path fill="#FFF" d="M148.111 60.42c-.635.648-1.263 1.118-1.885 1.406-1.014.476-3.04.833-4.185-.012-1.138-.838-.758-3.123.554-3.802 1.31-.672 4.054-.886 5.516-.948v3.356zm-2.151-15.566c-3.321 0-5.95.484-8.36.853-.067.977-.601 5.536 3.15 4.692 3.051-.488 5.483-1.001 6.586.188.48.517.734 1.082.771 2.197-2.457.058-4.489.305-6.098.747-2.544.692-4.652 1.732-5.86 4.206-1.067 2.213-.613 6.196 1.299 7.905 2.05 1.81 5.853 1.903 8.272.793 1.146-.516 2.141-1.272 3.097-2.075l.455 1.176c.427 1.096 1.032 1.28 2.15 1.28h2.94V52.918c0-4.794-3.727-8.064-8.402-8.064z"/>
    </g>
</svg>
