<svg xmlns="http://www.w3.org/2000/svg" width="32" height="32" viewBox="0 0 32 32">
    <g id="help" fill="none" fill-rule="evenodd">
        <path fill="#FFF" fill-rule="nonzero" d="M16 24a8 8 0 1 0 0-16 8 8 0 0 0 0 16zm0 7C7.716 31 1 24.284 1 16 1 7.716 7.716 1 16 1c8.284 0 15 6.716 15 15 0 8.284-6.716 15-15 15z"/>
        <path fill="#FF5252" d="M21.218 12.39l-1.608-1.608a1 1 0 0 1-.095-1.303l4.727-6.364a1 1 0 0 1 1.342-.246c.72.46 1.369.98 1.95 1.56a11.958 11.958 0 0 1 1.592 1.987 1 1 0 0 1-.245 1.345l-6.36 4.724a1 1 0 0 1-1.303-.095zM10.747 12.39l1.608-1.608a1 1 0 0 0 .096-1.303L7.723 3.115a1 1 0 0 0-1.342-.246c-.719.46-1.369.98-1.949 1.56A11.958 11.958 0 0 0 2.84 6.417a1 1 0 0 0 .244 1.345l6.36 4.724a1 1 0 0 0 1.303-.095zM10.752 19.644l1.608 1.607a1 1 0 0 1 .096 1.304l-4.728 6.364a1 1 0 0 1-1.342.246c-.719-.46-1.369-.981-1.949-1.561a11.958 11.958 0 0 1-1.592-1.987 1 1 0 0 1 .244-1.344l6.36-4.725a1 1 0 0 1 1.303.096zM21.223 19.644l-1.608 1.607a1 1 0 0 0-.095 1.304l4.727 6.364a1 1 0 0 0 1.342.246c.72-.46 1.369-.981 1.95-1.561a11.958 11.958 0 0 0 1.591-1.987 1 1 0 0 0-.244-1.344l-6.36-4.725a1 1 0 0 0-1.303.096z"/>
        <path stroke="#424242" d="M16 24.5a8.5 8.5 0 1 1 0-17 8.5 8.5 0 0 1 0 17zm0 6c8.008 0 14.5-6.492 14.5-14.5S24.008 1.5 16 1.5 1.5 7.992 1.5 16 7.992 30.5 16 30.5z" opacity=".197"/>
    </g>
</svg>
