<svg width="64" height="64" viewBox="0 0 64 64" fill="none" xmlns="http://www.w3.org/2000/svg">
<path fill-rule="evenodd" clip-rule="evenodd" d="M4.38477 13.1338V59.3303L22.2919 51.3647L41.6716 59.4142L59.6281 51.2586V4.73975L41.7774 13.0042L23.0852 4.95757L4.38477 13.1338Z" stroke="#FF5252" stroke-linecap="round" stroke-linejoin="round"/>
<path d="M42.7342 54.045C42.7342 53.4927 42.2865 53.045 41.7342 53.045V54.045H42.7342ZM42.7342 59.3343V54.045H41.7342V59.3343H42.7342ZM41.7342 60.3343C42.2865 60.3343 42.7342 59.8866 42.7342 59.3343H41.7342V60.3343ZM40.7342 59.3343C40.7342 59.8866 41.1819 60.3343 41.7342 60.3343V59.3343H40.7342ZM40.7342 54.045V59.3343H41.7342V54.045H40.7342ZM41.7342 53.045C41.1819 53.045 40.7342 53.4927 40.7342 54.045H41.7342V53.045ZM42.7342 51.387C42.7342 50.8348 42.2865 50.387 41.7342 50.387V51.387H42.7342ZM42.7342 51.5676V51.387H41.7342V51.5676H42.7342ZM41.7342 52.5676C42.2865 52.5676 42.7342 52.1199 42.7342 51.5676H41.7342V52.5676ZM40.7342 51.5676C40.7342 52.1199 41.1819 52.5676 41.7342 52.5676V51.5676H40.7342ZM40.7342 51.387V51.5676H41.7342V51.387H40.7342ZM41.7342 50.387C41.1819 50.387 40.7342 50.8348 40.7342 51.387H41.7342V50.387ZM42.7342 13.2199C42.7342 12.6676 42.2865 12.2199 41.7342 12.2199V13.2199H42.7342ZM42.7342 16.234V13.2199H41.7342V16.234H42.7342ZM41.7342 17.234C42.2865 17.234 42.7342 16.7863 42.7342 16.234H41.7342V17.234ZM40.7342 16.234C40.7342 16.7863 41.1819 17.234 41.7342 17.234V16.234H40.7342ZM40.7342 13.2199V16.234H41.7342V13.2199H40.7342ZM41.7342 12.2199C41.1819 12.2199 40.7342 12.6676 40.7342 13.2199H41.7342V12.2199ZM23.0675 15.3343V16.3343C23.6198 16.3343 24.0675 15.8866 24.0675 15.3343H23.0675ZM23.0675 14.045V15.3343H24.0675V14.045H23.0675ZM23.0675 14.045H24.0675C24.0675 13.4927 23.6198 13.045 23.0675 13.045V14.045ZM23.0675 14.045V13.045C22.5152 13.045 22.0675 13.4927 22.0675 14.045H23.0675ZM23.0675 15.3343V14.045H22.0675V15.3343H23.0675ZM23.0675 15.3343H22.0675C22.0675 15.8866 22.5152 16.3343 23.0675 16.3343V15.3343ZM23.0675 10.2343V11.2343C23.6198 11.2343 24.0675 10.7866 24.0675 10.2343H23.0675ZM23.0675 6.05371V10.2343H24.0675V6.05371H23.0675ZM23.0675 6.05371H24.0675C24.0675 5.50143 23.6198 5.05371 23.0675 5.05371V6.05371ZM23.0675 6.05371V5.05371C22.5152 5.05371 22.0675 5.50143 22.0675 6.05371H23.0675ZM23.0675 10.2343V6.05371H22.0675V10.2343H23.0675ZM23.0675 10.2343H22.0675C22.0675 10.7866 22.5152 11.2343 23.0675 11.2343V10.2343ZM23.0675 50.9007V51.9007C23.6198 51.9007 24.0675 51.453 24.0675 50.9007H23.0675ZM23.0675 47.8865V50.9007H24.0675V47.8865H23.0675ZM23.0675 47.8865H24.0675C24.0675 47.3342 23.6198 46.8865 23.0675 46.8865V47.8865ZM23.0675 47.8865V46.8865C22.5152 46.8865 22.0675 47.3342 22.0675 47.8865H23.0675ZM23.0675 50.9007V47.8865H22.0675V50.9007H23.0675ZM23.0675 50.9007H22.0675C22.0675 51.453 22.5152 51.9007 23.0675 51.9007V50.9007Z" fill="#FF5252"/>
<path d="M7.18884 33.9148C7.18884 33.9148 11.4776 41.9896 20.691 33.045C29.9045 24.1004 37.9727 30.713 39.9608 34.4951C40.6619 35.8289 42.879 38.3066 43.8398 39.137" stroke="#FF5252" stroke-linecap="round" stroke-linejoin="round" stroke-dasharray="4"/>
<path fill-rule="evenodd" clip-rule="evenodd" d="M55.4701 29.248C55.4701 25.7879 52.6299 22.9814 49.1258 22.9814C45.6224 22.9814 42.7828 25.7879 42.7828 29.248C42.7828 30.2564 43.6443 32.2125 43.6443 32.2125C43.784 32.53 44.0448 33.0338 44.2246 33.3311L48.8 40.9259C48.9792 41.2238 49.2725 41.2238 49.4523 40.9259L54.0315 33.3286C54.2107 33.0307 54.4722 32.5275 54.6125 32.2094C54.6125 32.2094 55.4701 30.2639 55.4701 29.248Z" fill="#FF5252"/>
<path fill-rule="evenodd" clip-rule="evenodd" d="M51.9748 29.4125C51.9748 30.9656 50.6994 32.2252 49.1262 32.2252C47.5524 32.2252 46.2777 30.9656 46.2777 29.4125C46.2777 27.8594 47.5524 26.5979 49.1262 26.5979C50.6994 26.5979 51.9748 27.8594 51.9748 29.4125Z" fill="white"/>
</svg>
