<svg width="32" height="32" viewBox="0 0 32 32" fill="none" xmlns="http://www.w3.org/2000/svg">
<g id="Partners/Small/Megafon/">
<path id="Shape" fill-rule="evenodd" clip-rule="evenodd" d="M16 3C16.1605 3 16.3195 3.00688 16.4792 3.01223V16.2912C16.4792 16.3424 16.4372 16.3845 16.386 16.3845H14.654C14.1174 16.3845 13.6787 16.8232 13.6787 17.359V28.789C7.60748 27.6945 3 22.3869 3 16C3 8.8205 8.8205 3 16 3ZM13.5006 14.1503C14.3467 14.1503 15.0323 13.4647 15.0323 12.6185C15.0323 11.7724 14.3467 11.0868 13.5006 11.0868C12.6545 11.0868 11.9681 11.7724 11.9681 12.6185C11.9681 13.4647 12.6545 14.1503 13.5006 14.1503ZM18.0232 3.15822C24.2419 4.1297 29 9.50841 29 16C29 23.1795 23.1795 29 16 29C15.7386 29 15.4802 28.9901 15.2227 28.9748V17.9743C15.2227 17.9231 15.2647 17.8818 15.3159 17.8818H17.0479C17.5845 17.8818 18.0232 17.4431 18.0232 16.9065V3.15822ZM17.9407 22.6743C18.6974 22.6743 19.3104 22.0613 19.3104 21.3053C19.3104 20.5486 18.6974 19.9356 17.9407 19.9356C17.1847 19.9356 16.571 20.5486 16.571 21.3053C16.571 22.0613 17.1847 22.6743 17.9407 22.6743ZM21.5629 22.6743C22.3196 22.6743 22.9326 22.0613 22.9326 21.3053C22.9326 20.5486 22.3196 19.9356 21.5629 19.9356C20.807 19.9356 20.194 20.5486 20.194 21.3053C20.194 22.0613 20.807 22.6743 21.5629 22.6743ZM25.1859 22.6743C25.9419 22.6743 26.5549 22.0613 26.5549 21.3053C26.5549 20.5486 25.9419 19.9356 25.1859 19.9356C24.4292 19.9356 23.8162 20.5486 23.8162 21.3053C23.8162 22.0613 24.4292 22.6743 25.1859 22.6743Z" fill="#4AA241"/>
</g>
</svg>
