<svg width="80" height="80" viewBox="0 0 80 80" fill="none" xmlns="http://www.w3.org/2000/svg">
<path d="M65.9213 25.176C65.3567 24.0468 62.5358 21.6667 61.2732 21.6667L20.3934 21.6667C19.1309 21.6667 16.31 24.0468 15.7454 25.176" fill="white"/>
<path d="M65.9213 25.176C65.3567 24.0468 62.5358 21.6667 61.2732 21.6667L20.3934 21.6667C19.1309 21.6667 16.31 24.0468 15.7454 25.176" stroke="#FF5252" stroke-linecap="round" stroke-linejoin="round"/>
<path d="M14.8052 26.3528C14.8975 24.9219 16.5243 23.7731 17.9427 23.9835C21.0962 24.4513 27.4072 25 39.6618 25C53.6135 25 60.8614 24.2887 64.2102 23.7955C65.4791 23.6086 66.7452 24.5512 66.8278 25.8312L69.7714 71.4573C69.9018 73.4785 68.5018 75.2507 66.4892 75.4777C62.1228 75.9702 53.5262 76.6667 39.827 76.6667C26.5883 76.6667 18.9003 76.0162 14.9945 75.528C13.062 75.2865 11.7583 73.5797 11.8837 71.6362L14.8052 26.3528Z" fill="white" stroke="#FF5252" stroke-linecap="round" stroke-linejoin="round"/>
<path d="M59.0928 30.6126C59.0782 30.369 59.1007 30.4601 59.0928 30.3392" stroke="#FF5252" stroke-linecap="round" stroke-linejoin="round"/>
<path d="M22.5021 30.4759C22.5006 30.6373 22.5012 30.5072 22.5005 30.8333" stroke="#FF5252" stroke-linecap="round" stroke-linejoin="round"/>
<path d="M58.8439 27.4703C57.266 11.8861 50.9926 4.11823 40.0236 4.16673C29.0534 4.21524 23.2337 12.0556 22.5645 27.6878" stroke="#FF5252" stroke-linecap="round" stroke-linejoin="round"/>
<path d="M29 48.2144L39.0548 56.7086C39.5645 57.1393 40.3411 57.0864 40.7852 56.5907L53 43" stroke="#FF5252" stroke-linecap="round"/>
</svg>
