<svg xmlns="http://www.w3.org/2000/svg" width="24" height="24" viewBox="0 0 24 24">
    <defs>
        <linearGradient id="a" x1="50%" x2="50%" y1="0%" y2="98.172%">
            <stop offset="0%" stop-color="#7AD86D"/>
            <stop offset="100%" stop-color="#6EBF63"/>
        </linearGradient>
    </defs>
    <g id="wa" fill="none" fill-rule="evenodd">
        <rect width="24" height="24" fill="url(#a)" rx="6"/>
        <g fill="#FEFEFE" fill-rule="nonzero">
            <path d="M12.164 18.218a6.562 6.562 0 0 1-3.598-1.073l-2.513.797.814-2.412a6.416 6.416 0 0 1-1.245-3.807c0-3.58 2.933-6.494 6.538-6.494 3.606 0 6.538 2.913 6.538 6.494 0 3.582-2.932 6.495-6.538 6.495h.004zm0-14.218c-4.293 0-7.776 3.46-7.776 7.723 0 1.459.408 2.826 1.115 3.99L4.1 19.855l4.306-1.37a7.798 7.798 0 0 0 3.758.962c4.294 0 7.776-3.46 7.776-7.724S16.46 4 12.164 4z"/>
            <path d="M10.34 8.528c-.129-.302-.224-.313-.416-.32a3.718 3.718 0 0 0-.22-.008c-.25 0-.511.072-.669.232-.192.195-.668.65-.668 1.581 0 .932.684 1.833.776 1.959.096.126 1.334 2.065 3.256 2.856 1.503.618 1.949.56 2.29.488.5-.106 1.127-.474 1.284-.916.158-.443.158-.82.112-.901-.046-.08-.173-.126-.365-.221-.192-.096-1.127-.555-1.303-.615-.173-.065-.338-.043-.47.14-.183.257-.365.516-.511.673-.115.122-.303.137-.46.073-.212-.088-.804-.295-1.535-.94-.564-.5-.948-1.122-1.06-1.309-.112-.191-.011-.302.076-.405.097-.118.189-.202.285-.312.096-.111.15-.17.212-.3.065-.125.019-.255-.027-.35-.046-.095-.431-1.027-.589-1.405h.001z"/>
        </g>
    </g>
</svg>
