<svg width="80" height="80" viewBox="0 0 80 80" fill="none" xmlns="http://www.w3.org/2000/svg">
<path d="M35 49.1667H37.619" stroke="#FF5252" stroke-linecap="round" stroke-linejoin="round"/>
<path d="M35 52.5547H44.6032" stroke="#FF5252" stroke-linecap="round" stroke-linejoin="round"/>
<path d="M36.3089 40.6963V57.3727" stroke="#FF5252" stroke-linecap="round"/>
<path fill-rule="evenodd" clip-rule="evenodd" d="M40.8545 40.4365H36.3089V49.1667H40.8545C43.6484 49.1667 45.9121 47.4743 45.9121 44.97C45.9121 42.4657 43.6484 40.4365 40.8545 40.4365Z" stroke="#FF5252"/>
<path fill-rule="evenodd" clip-rule="evenodd" d="M40 73.3333C56.5685 73.3333 70 69.9019 70 53.3333C70 36.7648 55.3789 20 40 20C24.6211 20 10 36.7648 10 53.3333C10 69.9019 23.4315 73.3333 40 73.3333Z" stroke="#FF5252"/>
<path d="M27.4483 20.0186C26.9458 18.5771 26.6667 17.0713 26.6667 15.5692C26.6667 8.43549 32.4497 6.95805 39.5834 6.95805C46.717 6.95805 52.5 8.43549 52.5 15.5692C52.5 16.9593 52.261 18.3527 51.827 19.6953" stroke="#FF5252" stroke-linecap="round" stroke-linejoin="round"/>
</svg>
